<?xml version="1.0" encoding="utf-8"?>
<!-- Generated by Mocodo 4.3.2 -->
<svg width="620" height="126" viewBox="0 0 620 126" xmlns="http://www.w3.org/2000/svg">
<rect x="0" y="0" width="620" height="126" fill="#f5f5f5" stroke="none" stroke-width="0"/>

<!-- Association EFFECTUER -->
<g>
	<line x1="56" y1="63" x2="179" y2="63" stroke="#bf812d" stroke-width="1.5"/>
	<line x1="308" y1="63" x2="179" y2="63" stroke="#bf812d" stroke-width="1.5"/>
	<g>
		<path d="M208 35 a14 14 90 0 1 14 14 V62 h-86 V49 a14 14 90 0 1 14 -14" fill="#dfc27d" stroke="#dfc27d" stroke-width="0"/>
		<path d="M222 62 v15 a14 14 90 0 1 -14 14 H150 a14 14 90 0 1 -14 -14 V62 H86" fill="#f6e8c3" stroke="#f6e8c3" stroke-width="0"/>
		<rect x="136" y="35" width="86" height="56" fill="none" rx="14" stroke="#bf812d" stroke-width="3"/>
		<line x1="136" y1="62" x2="222" y2="62" stroke="#bf812d" stroke-width="1.5"/>
		<text x="146" y="55.3" fill="#000000" font-family="Arial Black" font-size="13">Effectuer</text>
	</g>
	<text x="109" y="80" fill="#01665e" font-family="Arial" font-size="12">0,N</text>
	<text x="231" y="80" fill="#01665e" font-family="Arial" font-size="12">1,1</text>
</g>

<!-- Association CONCERNER -->
<g>
	<line x1="308" y1="63" x2="441" y2="63" stroke="#bf812d" stroke-width="1.5"/>
	<line x1="566" y1="63" x2="441" y2="63" stroke="#bf812d" stroke-width="1.5"/>
	<g>
		<path d="M474 35 a14 14 90 0 1 14 14 V62 h-94 V49 a14 14 90 0 1 14 -14" fill="#dfc27d" stroke="#dfc27d" stroke-width="0"/>
		<path d="M488 62 v15 a14 14 90 0 1 -14 14 H408 a14 14 90 0 1 -14 -14 V62 H94" fill="#f6e8c3" stroke="#f6e8c3" stroke-width="0"/>
		<rect x="394" y="35" width="94" height="56" fill="none" rx="14" stroke="#bf812d" stroke-width="3"/>
		<line x1="394" y1="62" x2="488" y2="62" stroke="#bf812d" stroke-width="1.5"/>
		<text x="404" y="55.3" fill="#000000" font-family="Arial Black" font-size="13">Concerner</text>
	</g>
	<text x="367" y="80" fill="#01665e" font-family="Arial" font-size="12">1,1</text>
	<text x="494" y="80" fill="#01665e" font-family="Arial" font-size="12">0,N</text>
</g>

<!-- Entity PERSONNE -->
<g>
	<g>
		<rect x="9" y="27" width="94" height="28" fill="#80cdc1" stroke="none" stroke-width="0" opacity="1"/>
		<rect x="9" y="55" width="94" height="44" fill="#c7eae5" stroke="none" stroke-width="0" opacity="1"/>
		<rect x="9" y="27" width="94" height="72" fill="none" stroke="#35978f" stroke-width="3" opacity="1"/>
		<line x1="9" y1="55" x2="103" y2="55" stroke="#35978f" stroke-width="1.5"/>
	</g>
	<text x="22" y="47.3" fill="#000000" font-family="Arial Black" font-size="13">Personne</text>
	<text x="17" y="71.2" fill="#000000" font-family="Arial" font-size="14">id personne</text>
	<line x1="17" y1="74" x2="95" y2="74" stroke="#000000" stroke-width="1.2"/>
	<text x="17" y="89.2" fill="#000000" font-family="Arial" font-size="14">nom</text>
</g>

<!-- Entity RESERVATION -->
<g>
	<g>
		<rect x="255" y="18" width="106" height="28" fill="#80cdc1" stroke="none" stroke-width="0" opacity="1"/>
		<rect x="255" y="46" width="106" height="62" fill="#c7eae5" stroke="none" stroke-width="0" opacity="1"/>
		<rect x="255" y="18" width="106" height="90" fill="none" stroke="#35978f" stroke-width="3" opacity="1"/>
		<line x1="255" y1="46" x2="361" y2="46" stroke="#35978f" stroke-width="1.5"/>
	</g>
	<text x="265" y="38.3" fill="#000000" font-family="Arial Black" font-size="13">Réservation</text>
	<text x="263" y="62.2" fill="#000000" font-family="Arial" font-size="14">id réservation</text>
	<line x1="263" y1="65" x2="352" y2="65" stroke="#000000" stroke-width="1.2"/>
	<text x="263" y="80.2" fill="#000000" font-family="Arial" font-size="14">date création</text>
	<text x="263" y="98.2" fill="#000000" font-family="Arial" font-size="14">statut</text>
</g>

<!-- Entity ATELIER -->
<g>
	<g>
		<rect x="521" y="9" width="90" height="28" fill="#80cdc1" stroke="none" stroke-width="0" opacity="1"/>
		<rect x="521" y="37" width="90" height="80" fill="#c7eae5" stroke="none" stroke-width="0" opacity="1"/>
		<rect x="521" y="9" width="90" height="108" fill="none" stroke="#35978f" stroke-width="3" opacity="1"/>
		<line x1="521" y1="37" x2="611" y2="37" stroke="#35978f" stroke-width="1.5"/>
	</g>
	<text x="542" y="29.3" fill="#000000" font-family="Arial Black" font-size="13">Atelier</text>
	<text x="529" y="53.2" fill="#000000" font-family="Arial" font-size="14">id atelier</text>
	<line x1="529" y1="56" x2="585" y2="56" stroke="#000000" stroke-width="1.2"/>
	<text x="529" y="71.2" fill="#000000" font-family="Arial" font-size="14">titre</text>
	<text x="529" y="89.2" fill="#000000" font-family="Arial" font-size="14">date atelier</text>
	<text x="529" y="107.2" fill="#000000" font-family="Arial" font-size="14">capacité</text>
</g>
</svg>